<mxfile host="app.diagrams.net" modified="2024-07-19T21:16:51.827Z" agent="Mozilla/5.0 (X11; Ubuntu; Linux x86_64; rv:128.0) Gecko/20100101 Firefox/128.0" version="24.7.2" etag="bPDHu5URi8p2IiWJA_b_" type="github">
  <diagram name="Page-1" id="YKHkMw6vku7FRR2ZGbeR">
    <mxGraphModel>
      <root>
        <mxCell id="0" />
        <mxCell id="1" parent="0" />
      </root>
    </mxGraphModel>
  </diagram>
</mxfile>
